<svg width="441" height="53" viewBox="0 0 441 53" fill="none" xmlns="http://www.w3.org/2000/svg">
<g clip-path="url(#clip0_2_387)">
<path d="M234.569 31.1341C234.569 39.0726 234.768 42.5319 235.678 43.5118C236.587 44.4916 237.806 44.7515 241.803 44.7515C244.49 44.7515 246.719 44.7515 247.938 43.1318C248.618 42.163 249.069 41.0517 249.257 39.8824C249.306 39.4525 249.406 39.1826 249.716 39.1826C250.026 39.1826 250.016 39.4025 250.016 39.9924C249.895 41.8115 249.641 43.6193 249.257 45.4014C248.897 46.6412 248.747 46.8611 246.059 46.8611C241.703 46.8611 237.396 46.5312 232.48 46.5312C230.912 46.5312 229.383 46.7012 227.484 46.7012C226.925 46.7012 226.665 46.5912 226.665 46.2612C226.665 46.1013 226.775 45.9413 227.075 45.9413C227.587 45.9228 228.097 45.849 228.593 45.7213C229.593 45.5114 229.862 44.3216 230.062 42.7219C230.322 40.4523 230.322 36.1831 230.322 30.9941V21.5159C230.322 13.0775 230.322 11.5678 230.222 9.83811C230.122 8.10844 229.712 7.13862 228.034 6.75869C227.468 6.64819 226.892 6.5946 226.315 6.59872C226.267 6.60427 226.217 6.60011 226.17 6.58648C226.123 6.57286 226.08 6.55004 226.042 6.51936C226.003 6.48867 225.972 6.45072 225.948 6.40771C225.925 6.36469 225.911 6.31748 225.906 6.26879C225.906 5.94885 226.165 5.83887 226.725 5.83887C229.003 5.83887 232.19 5.99884 232.45 5.99884C232.71 5.99884 236.447 5.83887 237.926 5.83887C238.475 5.83887 238.735 5.94885 238.735 6.26879C238.73 6.31748 238.716 6.36469 238.692 6.40771C238.669 6.45072 238.637 6.48867 238.599 6.51936C238.561 6.55004 238.517 6.57286 238.47 6.58648C238.423 6.60011 238.374 6.60427 238.325 6.59872C237.766 6.60919 237.208 6.66267 236.657 6.75869C235.188 7.02864 234.778 7.94847 234.658 9.83811C234.559 11.5678 234.559 13.0775 234.559 21.5159L234.569 31.1341Z" fill="#90F1C4"/>
<path d="M259.298 21.5159C259.298 13.0775 259.298 11.5678 259.198 9.83815C259.099 8.10847 258.589 7.07867 257.48 6.83871C256.964 6.70276 256.434 6.63222 255.901 6.62875C255.853 6.63427 255.804 6.63004 255.758 6.6163C255.712 6.60257 255.668 6.57961 255.631 6.54881C255.594 6.51801 255.563 6.48 255.541 6.43704C255.519 6.39409 255.505 6.34707 255.501 6.29882C255.501 5.97888 255.751 5.8689 256.311 5.8689C257.979 5.8689 261.177 6.02887 261.427 6.02887C261.676 6.02887 264.874 5.8689 266.423 5.8689C266.982 5.8689 267.232 5.97888 267.232 6.29882C267.228 6.34707 267.215 6.39409 267.192 6.43704C267.17 6.48 267.139 6.51801 267.102 6.54881C267.065 6.57961 267.022 6.60257 266.975 6.6163C266.929 6.63004 266.88 6.63427 266.832 6.62875C266.405 6.64239 265.98 6.69594 265.563 6.78872C264.164 6.99868 263.785 7.99849 263.655 9.83815C263.555 11.5678 263.555 13.0775 263.555 21.5159V30.9942C263.555 36.1832 263.555 40.4524 263.815 42.7219C263.965 44.2916 264.264 45.4814 265.813 45.7214C266.522 45.8314 267.592 45.9413 267.891 45.9413C268.351 45.9413 268.501 46.1013 268.501 46.2613C268.501 46.4212 268.301 46.7012 267.741 46.7012C264.954 46.7012 261.746 46.5312 261.457 46.5312C261.167 46.5312 258.009 46.7012 256.461 46.7012C255.901 46.7012 255.651 46.5912 255.651 46.2613C255.651 46.1013 255.751 45.9413 256.211 45.9413C256.655 45.9332 257.097 45.8796 257.53 45.7814C258.529 45.5614 258.839 44.3216 259.049 42.7819C259.298 40.5124 259.298 36.2432 259.298 31.0541V21.5159Z" fill="#90F1C4"/>
<path d="M291.992 30.9941C291.992 36.1831 291.992 40.4523 292.241 42.7219C292.391 44.2916 292.701 45.4814 294.24 45.7213C294.995 45.837 295.755 45.9104 296.518 45.9413C296.828 45.9413 296.928 46.1013 296.928 46.2612C296.928 46.4212 296.678 46.7012 296.118 46.7012C293.331 46.7012 290.123 46.5312 289.883 46.5312C289.644 46.5312 286.436 46.7012 284.887 46.7012C284.328 46.7012 284.068 46.5912 284.068 46.2612C284.068 46.1013 284.178 45.9413 284.478 45.9413C284.99 45.9228 285.5 45.849 285.997 45.7213C286.996 45.5114 287.266 44.3216 287.465 42.7219C287.725 40.4523 287.725 36.1831 287.725 30.9941V8.15843C285.237 8.21842 282.729 8.21842 280.221 8.26841C277.074 8.3284 275.865 8.70833 275.055 9.99809C274.715 10.5304 274.424 11.0926 274.186 11.6778C274.036 12.1077 273.886 12.2177 273.687 12.2177C273.487 12.2177 273.427 12.0577 273.427 11.7278C273.427 11.1879 274.426 6.53874 274.546 6.10882C274.666 5.6789 274.846 5.10901 275.055 5.10901C275.767 5.42103 276.516 5.63948 277.284 5.75889C278.752 5.91886 280.681 6.02884 281.28 6.02884H300.265C301.47 6.05186 302.674 5.96148 303.862 5.75889C304.621 5.64891 305.081 5.48894 305.281 5.48894C305.481 5.48894 305.531 5.81887 305.531 6.13881C305.531 7.75851 305.381 11.4878 305.381 12.1377C305.381 12.7876 305.231 12.8376 305.031 12.8376C304.831 12.8376 304.671 12.6776 304.621 11.9177C304.621 11.6978 304.571 11.5378 304.571 11.3278C304.422 9.69814 303.202 8.45838 298.336 8.3284C296.208 8.3284 294.08 8.3284 291.952 8.21842L291.992 30.9941Z" fill="#90F1C4"/>
<path d="M341.861 22.9956C342.011 22.9956 342.171 22.9356 342.171 22.6657V21.5159C342.171 13.0775 342.171 11.5678 342.071 9.83811C341.971 8.10844 341.561 7.13862 339.883 6.75869C339.316 6.64819 338.741 6.5946 338.164 6.59872C338.115 6.60427 338.066 6.60011 338.019 6.58648C337.972 6.57286 337.928 6.55004 337.89 6.51936C337.852 6.48867 337.821 6.45072 337.797 6.40771C337.774 6.36469 337.759 6.31748 337.754 6.26879C337.754 5.94885 338.014 5.83887 338.564 5.83887C340.852 5.83887 344.039 5.99884 344.299 5.99884C344.559 5.99884 347.746 5.83887 349.295 5.83887C349.854 5.83887 350.104 5.94885 350.104 6.26879C350.104 6.58873 349.904 6.59872 349.695 6.59872C349.271 6.61251 348.849 6.66607 348.436 6.75869C347.067 7.02864 346.657 7.94847 346.557 9.83811C346.457 11.5678 346.457 13.0775 346.457 21.5159V30.9941C346.457 36.1831 346.457 40.4523 346.707 42.7219C346.857 44.2916 347.167 45.4814 348.705 45.7213C349.46 45.837 350.221 45.9104 350.983 45.9413C351.293 45.9413 351.393 46.1013 351.393 46.2612C351.393 46.4212 351.133 46.7012 350.584 46.7012C347.796 46.7012 344.589 46.5312 344.349 46.5312C344.109 46.5312 340.902 46.7012 339.353 46.7012C338.793 46.7012 338.534 46.5912 338.534 46.2612C338.534 46.1013 338.644 45.9413 338.943 45.9413C339.456 45.9228 339.965 45.849 340.462 45.7213C341.461 45.5114 341.731 44.3216 341.931 42.7219C342.191 40.4523 342.191 36.1831 342.191 30.9941V25.3452C342.192 25.3037 342.185 25.2623 342.17 25.2235C342.155 25.1847 342.132 25.1494 342.104 25.1195C342.075 25.0897 342.04 25.066 342.002 25.0498C341.964 25.0336 341.922 25.0252 341.881 25.0252H320.368C320.219 25.0252 320.069 25.0252 320.069 25.3452V30.9941C320.069 36.1831 320.069 40.4523 320.319 42.7219C320.478 44.2916 320.778 45.4814 322.317 45.7213C323.072 45.837 323.832 45.9104 324.595 45.9413C324.905 45.9413 325.005 46.1013 325.005 46.2612C325.005 46.4212 324.755 46.7012 324.195 46.7012C321.408 46.7012 318.2 46.5312 317.96 46.5312C317.721 46.5312 314.513 46.7012 312.965 46.7012C312.405 46.7012 312.155 46.5912 312.155 46.2612C312.155 46.1013 312.255 45.9413 312.555 45.9413C313.068 45.9228 313.577 45.849 314.074 45.7213C315.073 45.5114 315.343 44.3216 315.542 42.7219C315.802 40.4523 315.802 36.1831 315.802 30.9941V21.5159C315.802 13.0775 315.802 11.5678 315.702 9.83811C315.602 8.10844 315.193 7.13862 313.524 6.75869C312.955 6.64864 312.376 6.59506 311.795 6.59872C311.747 6.60427 311.698 6.60011 311.651 6.58648C311.604 6.57286 311.56 6.55004 311.522 6.51936C311.484 6.48867 311.452 6.45072 311.429 6.40771C311.405 6.36469 311.391 6.31748 311.386 6.26879C311.386 5.94885 311.646 5.83887 312.205 5.83887C314.483 5.83887 317.681 5.99884 317.93 5.99884C318.18 5.99884 321.378 5.83887 322.926 5.83887C323.486 5.83887 323.736 5.94885 323.736 6.26879C323.732 6.31704 323.719 6.36406 323.696 6.40701C323.674 6.44997 323.643 6.48798 323.606 6.51878C323.569 6.54958 323.526 6.57254 323.479 6.58627C323.433 6.60001 323.384 6.60424 323.336 6.59872C322.909 6.61236 322.484 6.66591 322.067 6.75869C320.698 7.02864 320.289 7.94847 320.189 9.83811C320.089 11.5678 320.089 13.0775 320.089 21.5159V22.6457C320.089 22.9156 320.239 22.9756 320.388 22.9756L341.861 22.9956Z" fill="#90F1C4"/>
<path d="M363.963 21.5159C363.963 13.0775 363.963 11.5678 363.863 9.83815C363.763 8.10847 363.253 7.07867 362.134 6.83871C361.622 6.70349 361.095 6.63295 360.566 6.62875C360.517 6.6343 360.468 6.63014 360.421 6.61651C360.374 6.60289 360.33 6.58007 360.292 6.54938C360.254 6.5187 360.222 6.48075 360.199 6.43774C360.176 6.39472 360.161 6.34751 360.156 6.29882C360.156 5.97888 360.416 5.8689 360.965 5.8689C362.644 5.8689 365.831 6.02887 366.091 6.02887C366.351 6.02887 369.538 5.8689 371.087 5.8689C371.647 5.8689 371.896 5.97888 371.896 6.29882C371.896 6.61876 371.697 6.62875 371.487 6.62875C371.063 6.64306 370.642 6.69661 370.228 6.78872C368.859 7.05867 368.449 7.9785 368.349 9.86814C368.249 11.5978 368.249 13.1075 368.249 21.5459V30.9942C368.249 36.1832 368.249 40.4524 368.499 42.7219C368.649 44.2916 368.959 45.4814 370.498 45.7214C371.207 45.8314 372.276 45.9413 372.576 45.9413C373.036 45.9413 373.185 46.1013 373.185 46.2613C373.185 46.4212 372.986 46.7012 372.426 46.7012C369.638 46.7012 366.431 46.5312 366.141 46.5312C365.851 46.5312 362.694 46.7012 361.145 46.7012C360.586 46.7012 360.326 46.5912 360.326 46.2613C360.326 46.1013 360.436 45.9413 360.885 45.9413C361.329 45.9343 361.771 45.8807 362.204 45.7814C363.204 45.5614 363.523 44.3216 363.723 42.7819C363.983 40.5124 363.983 36.2432 363.983 31.0541L363.963 21.5159Z" fill="#90F1C4"/>
<path d="M385.445 41.6121C380.529 36.913 379.32 30.7542 379.32 25.6151C379.352 20.1714 381.37 14.9269 384.996 10.8679C387.993 7.61853 392.649 5.079 400.453 5.079C402.916 5.07631 405.373 5.2938 407.797 5.72888C409.726 6.10881 411.294 6.26878 413.173 6.53873C413.532 6.59872 413.632 6.80868 413.632 7.13862C413.632 7.46855 413.482 8.21841 413.373 10.1381C413.273 11.9277 413.273 14.8972 413.223 15.707C413.173 16.5168 413.073 16.8468 412.773 16.8468C412.473 16.8468 412.363 16.4669 412.363 15.707C412.412 13.661 411.646 11.6794 410.235 10.198C408.457 8.57834 404.56 7.11862 400.093 7.11862C393.359 7.11862 390.211 9.22822 388.443 11.0579C384.736 14.8472 383.877 19.6563 383.877 25.1652C383.877 35.4933 391.331 44.9515 402.172 44.9515C405.979 44.9515 408.966 44.4616 410.995 42.242C411.97 40.8984 412.613 39.343 412.873 37.7028C412.973 37.113 413.073 36.893 413.373 36.893C413.672 36.893 413.732 37.2729 413.732 37.7028C413.514 40.0349 413.157 42.3519 412.663 44.6415C412.363 45.6414 412.263 45.7813 411.344 46.2112C409.346 47.0711 405.469 47.451 402.222 47.451C394.568 47.451 389.452 45.4514 385.445 41.6121Z" fill="#90F1C4"/>
<path d="M422.245 45.9914C421.536 45.6114 421.486 45.4015 421.486 43.9917C421.486 41.2922 421.686 39.1227 421.736 38.2628C421.786 37.6629 421.886 37.393 422.145 37.393C422.405 37.393 422.495 37.5629 422.495 37.9929C422.479 38.6632 422.532 39.3333 422.655 39.9925C423.414 43.9917 426.752 45.5015 430.149 45.5015C431.105 45.5374 432.059 45.3766 432.95 45.0289C433.842 44.6813 434.653 44.1543 435.333 43.4804C436.013 42.8066 436.548 42.0003 436.904 41.1114C437.26 40.2226 437.43 39.27 437.403 38.3128C437.403 34.5835 435.934 32.4239 431.568 28.5846L429.29 26.585C423.914 21.8859 422.705 18.5865 422.705 14.8572C422.705 9.07832 426.752 5.12907 433.196 5.12907C434.782 5.10732 436.363 5.28876 437.903 5.66896C438.483 5.82877 439.08 5.91938 439.681 5.93891C440.091 5.93891 440.191 6.04889 440.191 6.31884C440.191 6.58879 439.981 8.37845 439.981 12.0478C439.981 12.9176 439.881 13.2975 439.631 13.2975C439.381 13.2975 439.271 13.0276 439.221 12.5877C439.132 11.6608 438.91 10.7517 438.562 9.88817C438.262 9.29828 436.893 7.02871 432.227 7.02871C431.394 6.98521 430.562 7.11781 429.784 7.41787C429.005 7.71793 428.299 8.17871 427.711 8.77017C427.123 9.36164 426.666 10.0705 426.369 10.8506C426.073 11.6307 425.945 12.4644 425.992 13.2975C425.992 16.3769 427.311 18.2966 432.177 22.3758L433.646 23.5156C439.641 28.5147 441.05 31.894 441.05 36.2132C441.056 37.9408 440.672 39.6474 439.926 41.2055C439.18 42.7637 438.092 44.1331 436.743 45.2115C434.501 46.769 431.818 47.5646 429.09 47.4811C426.721 47.5485 424.372 47.0371 422.245 45.9914V45.9914Z" fill="#90F1C4"/>
<path d="M42.3254 4.999H17.0861L12.3 24.6953H31.2845L30.655 27.4648H11.6705L6.67455 45.1914L4.52631 51.4402L2.80771 52.9899L4.42639 44.1116L13.9886 2.25952H42.9649L42.3254 4.999Z" fill="#90F1C4"/>
<path d="M32.9131 23.3157C32.3 23.3604 31.7133 23.5833 31.225 23.957C30.7366 24.3307 30.3679 24.8389 30.1641 25.4192C29.9603 25.9996 29.9302 26.6268 30.0776 27.224C30.225 27.8212 30.5434 28.3624 30.9937 28.7811C31.444 29.1999 32.0068 29.4779 32.6128 29.5812C33.2188 29.6845 33.8418 29.6085 34.4053 29.3626C34.9688 29.1167 35.4483 28.7115 35.7849 28.1968C36.1215 27.6821 36.3007 27.0802 36.3004 26.4651C36.2665 25.5987 35.8912 24.781 35.2564 24.1908C34.6217 23.6006 33.7791 23.2859 32.9131 23.3157V23.3157ZM32.9131 28.3147C32.5528 28.2875 32.2082 28.1557 31.9215 27.9356C31.6348 27.7154 31.4185 27.4164 31.299 27.0751C31.1796 26.7338 31.1621 26.365 31.2489 26.014C31.3356 25.663 31.5228 25.3448 31.7874 25.0986C32.052 24.8523 32.3827 24.6886 32.7389 24.6275C33.095 24.5663 33.4613 24.6104 33.7928 24.7544C34.1244 24.8983 34.4067 25.1359 34.6054 25.4379C34.8041 25.74 34.9105 26.0934 34.9115 26.4551C34.9038 26.7094 34.8459 26.9596 34.7411 27.1915C34.6363 27.4233 34.4868 27.6321 34.301 27.8059C34.1153 27.9796 33.8971 28.1149 33.6589 28.204C33.4207 28.293 33.1672 28.3341 32.9131 28.3247V28.3147Z" fill="#90F1C4"/>
<path d="M45.8925 3.73929C43.4345 2.43954 41.0365 1.29975 38.5785 0C39.0538 0.457959 39.3986 1.03425 39.5777 1.66968C39.7803 2.24737 39.8751 2.85738 39.8575 3.46935C39.8778 4.22202 39.7697 4.97265 39.5377 5.68893C39.3599 6.35988 39.0163 6.97531 38.5385 7.47859C40.9666 6.10885 43.4545 5.10904 45.8925 3.73929Z" fill="#90F1C4"/>
<path d="M8.98267 47.4711H0V48.2209H8.98267V47.4711Z" fill="#90F1C4"/>
<path d="M8.00345 48.9807H0.809326V49.8006H8.00345V48.9807Z" fill="#90F1C4"/>
<path d="M71.5516 6.74878L65.3267 35.7433C64.7664 38.7003 63.218 41.3789 60.9357 43.3392C58.6535 45.2996 55.7729 46.4252 52.7669 46.5313C51.4962 46.5862 50.2303 46.3413 49.0715 45.8165C47.9127 45.2917 46.8934 44.5016 46.096 43.5101C45.2986 42.5185 44.7453 41.3532 44.4808 40.1083C44.2164 38.8633 44.2482 37.5736 44.5736 36.3432L50.9584 6.74878H53.5263L47.5312 34.4436C45.9625 41.8722 48.96 44.3617 53.2565 44.3617C57.7329 44.3617 61.4998 41.6522 62.8687 35.3634L68.9437 6.74878H71.5516Z" fill="#90F1C4"/>
<path d="M106.223 8.90837H94.8626L86.9291 45.7714H84.3811L92.2947 8.90837H80.9939L81.4335 6.74878H106.663L106.223 8.90837Z" fill="#90F1C4"/>
<path d="M137.078 6.74878L130.843 35.7433C130.286 38.7019 128.739 41.3825 126.456 43.3435C124.173 45.3044 121.29 46.4288 118.283 46.5313C117.013 46.584 115.749 46.3378 114.591 45.8123C113.433 45.2868 112.415 44.4968 111.618 43.5058C110.821 42.5148 110.267 41.3504 110.002 40.1064C109.737 38.8624 109.767 37.5734 110.09 36.3432L116.425 6.74878H118.993L112.998 34.4436C111.409 41.8722 114.467 44.3617 118.733 44.3617C123.209 44.3617 126.976 41.6522 128.345 35.3634L134.46 6.79877L137.078 6.74878Z" fill="#90F1C4"/>
<path d="M151.047 6.74878H160.389C166.994 6.74878 169.891 11.138 168.522 17.4768C167.98 20.0066 166.773 22.3458 165.025 24.2528C163.277 26.1598 161.053 27.5655 158.581 28.3247L165.465 45.7714H162.248L156.073 28.9146H148.878L145.281 45.7714H142.714L151.047 6.74878ZM149.358 26.745H155.743C159.24 26.745 164.376 24.0955 165.845 17.2568C166.844 12.7077 165.465 8.90837 159.949 8.90837H153.175L149.358 26.745Z" fill="#90F1C4"/>
<path d="M202.984 8.90828H186.318L182.931 24.6353H194.921L194.421 26.8049H182.431L178.854 43.6117H195.89L195.4 45.7713H175.856L184.21 6.77869H203.434L202.984 8.90828Z" fill="#90F1C4"/>
<path d="M394.838 15.847L395.018 16.4669Z" fill="#90F1C4"/>
<path d="M395.347 17.3467C395.617 17.7866 396.346 18.2065 396.736 18.5965C396.736 18.5965 396.846 18.6665 396.826 18.6665V18.8364C396.626 18.6865 396.346 18.5965 396.107 18.4465C395.878 18.3014 395.67 18.1266 395.487 17.9266C395.048 17.4187 394.708 16.8317 394.488 16.1969C394.273 15.6569 394.171 15.0784 394.188 14.4972V14.2773V14.0573V13.8374C394.188 13.7674 394.188 13.6874 394.238 13.6274C394.315 13.3476 394.412 13.0737 394.528 12.8076C394.766 12.2653 395.105 11.7733 395.527 11.3578C395.937 10.9288 396.43 10.5885 396.976 10.358C397.52 10.1497 398.093 10.0282 398.675 9.9981C398.961 9.98322 399.248 9.98322 399.534 9.9981H399.964L400.393 10.0581C401.519 10.2614 402.584 10.7159 403.511 11.3878C404.44 12.0406 405.242 12.8571 405.879 13.7974C406.205 14.2608 406.483 14.7567 406.708 15.2771C406.823 15.538 406.923 15.805 407.008 16.0769C407.008 16.2169 407.098 16.3469 407.128 16.4869L407.238 16.8868C407.486 17.9848 407.584 19.1117 407.527 20.2362C407.408 22.4722 406.786 24.6525 405.709 26.615C405.439 27.0949 405.149 27.6148 404.83 28.0347C404.524 28.4888 404.191 28.9229 403.83 29.3344C403.466 29.7423 403.079 30.1295 402.671 30.4942L402.342 30.7542L402.002 31.0041L401.832 31.1341L401.672 31.2441L401.352 31.484C400.483 32.1186 399.664 32.8206 398.904 33.5836C398.528 33.9489 398.193 34.3546 397.905 34.7934L397.695 35.1334L397.516 35.4833C397.454 35.5996 397.401 35.7199 397.356 35.8432C397.306 35.9632 397.256 36.0832 397.216 36.2031L397.096 36.5831L397.006 36.963C396.97 37.0908 396.943 37.2212 396.926 37.3529V37.5529C396.926 37.6129 396.926 37.6829 396.926 37.7429C396.858 38.2732 396.834 38.8083 396.856 39.3426C396.856 39.6025 396.856 39.8725 396.906 40.1424C396.956 40.4124 396.956 40.6723 396.996 40.9423V41.1422V41.3422V41.7421C396.996 41.8821 396.996 42.012 396.996 42.152C396.989 42.2963 396.972 42.4399 396.946 42.5819C396.511 41.5602 396.28 40.4631 396.267 39.3526C396.233 38.7956 396.25 38.2368 396.316 37.6829C396.316 37.6229 396.316 37.5529 396.316 37.4829V37.2729C396.316 37.133 396.316 36.993 396.386 36.863L396.486 36.4431L396.606 36.0432C396.606 35.9132 396.706 35.7832 396.756 35.6433C396.804 35.5097 396.861 35.3795 396.926 35.2533L397.116 34.8734L397.326 34.5135C397.396 34.3935 397.486 34.2735 397.565 34.1635L397.825 33.8236C398.005 33.6136 398.415 33.1137 398.605 32.9238C399.032 32.4413 399.5 31.9964 400.003 31.594C400.103 31.504 400.683 31.0141 400.793 30.9341L401.412 30.3543L402.112 29.7044C402.471 29.3144 402.671 29.1845 403.021 28.7945C403.377 28.4069 403.71 27.9997 404.02 27.5748C404.325 27.1257 404.602 26.6582 404.85 26.175C404.979 25.9351 405.089 25.7351 405.199 25.4952C405.309 25.2552 405.439 25.0353 405.539 24.7953C405.639 24.5553 405.709 24.3354 405.799 24.0854C405.889 23.8355 406.069 23.2456 406.138 22.9956C406.381 22.1128 406.505 21.2017 406.508 20.2862C406.526 19.769 406.51 19.2513 406.458 18.7364C406.423 18.3411 406.353 17.9496 406.248 17.5667L406.148 17.0068C406.148 16.8768 405.999 16.4469 405.969 16.3269C405.9 16.1211 405.817 15.9206 405.719 15.727C405.503 15.2022 405.242 14.697 404.939 14.2173C404.474 13.3779 403.866 12.6267 403.141 11.9977C402.301 11.386 401.335 10.9693 400.313 10.7779L399.934 10.728H399.544C399.288 10.7129 399.031 10.7129 398.774 10.728C398.267 10.7638 397.768 10.8785 397.296 11.0679C396.829 11.2552 396.407 11.5378 396.057 11.8977C395.703 12.2575 395.415 12.6772 395.207 13.1375C395.104 13.3723 395.014 13.6126 394.938 13.8574C394.918 13.9197 394.901 13.9831 394.888 14.0473V14.2273V14.4073V14.4972V14.5972V14.7772V14.9672C394.888 15.0971 394.888 15.2171 394.888 15.3471C394.893 15.6856 394.943 16.0218 395.038 16.3469" fill="#90F1C4"/>
<path d="M396.177 18.3065C396.847 18.4285 397.445 18.8046 397.845 19.3563C398.277 19.8711 398.597 20.4704 398.784 21.116C399.09 22.3817 399.215 23.6845 399.154 24.9853C399.154 26.255 399.054 27.5348 399.004 28.7945C398.969 29.4273 398.969 30.0615 399.004 30.6942C399.021 31.0046 399.068 31.3127 399.144 31.614C399.17 31.7648 399.225 31.9089 399.308 32.0377C399.39 32.1666 399.498 32.2775 399.624 32.3639V32.4339C399.479 32.3518 399.352 32.2413 399.251 32.109C399.149 31.9767 399.076 31.8254 399.034 31.664C398.927 31.3398 398.856 31.0044 398.824 30.6642C398.732 30.0451 398.682 29.4204 398.675 28.7945C398.675 27.5148 398.675 26.245 398.675 24.9753C398.703 23.7288 398.561 22.4844 398.255 21.276C398.065 20.702 397.785 20.1619 397.426 19.6763C397.092 19.1698 396.648 18.7459 396.127 18.4365L396.177 18.3065Z" fill="#90F1C4"/>
<path d="M396.227 18.3466C395.851 17.5443 395.679 16.6617 395.727 15.7771C395.751 15.3233 395.863 14.8785 396.057 14.4673C396.257 14.0656 396.505 13.6896 396.796 13.3475C397.104 13.0038 397.49 12.7384 397.92 12.5733C398.351 12.4081 398.815 12.3479 399.274 12.3977C400.173 12.4583 401.029 12.8091 401.712 13.3975C402.353 14.0205 402.821 14.799 403.071 15.6571C403.354 16.478 403.584 17.3162 403.76 18.1666C403.931 19.0024 404.301 19.7845 404.84 20.4462C405.429 21.0667 406.154 21.5424 406.958 21.8359V21.9159C406.106 21.6581 405.324 21.2102 404.67 20.6061C404.083 19.9398 403.678 19.1344 403.491 18.2666C403.311 17.425 403.074 16.5965 402.781 15.7871C402.535 14.9795 402.084 14.2493 401.472 13.6675C400.841 13.1254 400.053 12.7996 399.224 12.7376C398.819 12.7003 398.411 12.7587 398.033 12.9081C397.654 13.0574 397.316 13.2935 397.046 13.5975C396.776 13.9056 396.538 14.2406 396.336 14.5973C396.166 14.9744 396.054 15.3758 396.007 15.7871C395.924 16.6325 396.012 17.4861 396.267 18.2966L396.227 18.3466Z" fill="#90F1C4"/>
<path d="M395.937 18.1566C395.401 17.4025 395.108 16.5024 395.098 15.5771C395.121 14.6385 395.42 13.7276 395.957 12.9576C396.478 12.1661 397.283 11.6044 398.205 11.3879C399.117 11.1968 400.064 11.259 400.943 11.5678C401.771 11.9625 402.501 12.5356 403.081 13.2461C403.662 13.9565 404.078 14.7867 404.3 15.6771C404.511 16.5311 404.798 17.3644 405.159 18.1666C405.642 18.9094 406.339 19.4881 407.158 19.8263V19.8963C406.741 19.7229 406.343 19.5086 405.969 19.2564C405.607 18.972 405.291 18.635 405.029 18.2566C404.605 17.4562 404.269 16.6112 404.03 15.7371C403.767 14.8976 403.361 14.1096 402.831 13.4075C402.326 12.706 401.634 12.1618 400.833 11.8378C400.01 11.5704 399.131 11.5256 398.285 11.7078C397.461 11.9171 396.746 12.4317 396.287 13.1476C395.812 13.8659 395.536 14.6973 395.487 15.5571C395.484 16.4324 395.668 17.2983 396.027 18.0966L395.937 18.1566Z" fill="#90F1C4"/>
<path d="M396.516 18.5365C396.25 17.7069 396.192 16.8244 396.346 15.967C396.406 15.5199 396.57 15.0932 396.825 14.7215C397.08 14.3497 397.42 14.0434 397.815 13.8274C398.232 13.6333 398.693 13.555 399.15 13.6007C399.607 13.6465 400.043 13.8145 400.413 14.0873C401.148 14.6166 401.671 15.3886 401.892 16.2669C402.102 17.1267 402.162 17.9766 402.302 18.8064C402.423 19.641 402.637 20.4594 402.941 21.246C403.238 22.0329 403.682 22.7558 404.25 23.3756C404.84 23.9803 405.534 24.4747 406.298 24.8353V24.9153C405.502 24.5805 404.771 24.1065 404.14 23.5155C403.51 22.9022 403.01 22.1676 402.671 21.356C402.337 20.5573 402.098 19.7216 401.962 18.8664C401.812 18.0166 401.742 17.1567 401.542 16.3569C401.34 15.5532 400.862 14.8458 400.193 14.3573C399.877 14.115 399.501 13.963 399.105 13.9172C398.709 13.8714 398.308 13.9337 397.945 14.0973C397.589 14.2908 397.281 14.562 397.044 14.8909C396.807 15.2197 396.647 15.5978 396.576 15.997C396.386 16.8159 396.386 17.6675 396.576 18.4865L396.516 18.5365Z" fill="#90F1C4"/>
<path d="M396.726 18.6265C396.681 18.2211 396.681 17.812 396.726 17.4067C396.748 16.9908 396.829 16.5801 396.966 16.1869C397.099 15.763 397.377 15.3998 397.752 15.1619C398.127 14.924 398.574 14.8266 399.014 14.8872C399.43 15.0207 399.805 15.2592 400.103 15.5796C400.4 15.9001 400.61 16.2917 400.713 16.7168C400.928 17.5081 401.065 18.3184 401.123 19.1364L401.322 21.5459C401.355 22.3432 401.517 23.13 401.802 23.8755C402.396 25.3671 403.511 26.5926 404.939 27.3248V27.3948C403.413 26.7427 402.199 25.5243 401.552 23.9954C401.396 23.6132 401.273 23.2186 401.183 22.8157C401.113 22.4157 401.063 22.0058 401.023 21.6059L400.783 19.1963C400.717 18.4042 400.573 17.6206 400.353 16.8568C400.245 16.4915 400.065 16.1516 399.824 15.857C399.601 15.563 399.289 15.349 398.934 15.2471C398.569 15.2022 398.199 15.2826 397.885 15.4751C397.571 15.6675 397.332 15.9607 397.206 16.3069C396.933 17.0528 396.797 17.8421 396.806 18.6364L396.726 18.6265Z" fill="#90F1C4"/>
<path d="M396.946 18.7464C396.922 18.3505 396.987 17.9542 397.136 17.5867C397.242 17.1984 397.429 16.8372 397.685 16.5269C397.827 16.3517 398.019 16.2242 398.235 16.1616C398.451 16.099 398.681 16.1044 398.894 16.1769C399.1 16.2652 399.282 16.4024 399.423 16.5767C399.564 16.7509 399.66 16.9568 399.704 17.1767C399.868 17.9319 399.945 18.7035 399.934 19.4763C399.934 20.2362 399.983 20.986 400.023 21.7359C400.082 23.2444 400.263 24.7457 400.563 26.225C400.699 26.9632 400.934 27.6796 401.262 28.3546C401.617 29.0184 402.061 29.6306 402.581 30.1743L402.521 30.2243C401.389 29.1742 400.619 27.7913 400.323 26.275C399.995 24.7919 399.794 23.2833 399.724 21.7659C399.664 21.006 399.614 20.2462 399.594 19.4863C399.597 18.7464 399.517 18.0085 399.354 17.2867C399.322 17.1289 399.253 16.9811 399.152 16.8557C399.051 16.7304 398.922 16.6313 398.774 16.5669C398.628 16.5193 398.471 16.5167 398.323 16.5595C398.175 16.6023 398.044 16.6884 397.945 16.8068C397.719 17.0854 397.534 17.3952 397.396 17.7266C397.224 18.0399 397.099 18.3768 397.026 18.7264L396.946 18.7464Z" fill="#90F1C4"/>
</g>
<defs>
<clipPath id="clip0_2_387">
<rect width="441" height="53" fill="white"/>
</clipPath>
</defs>
</svg>
