<svg width="933" height="698" viewBox="0 0 933 698" fill="none" xmlns="http://www.w3.org/2000/svg">
<g clip-path="url(#clip0_2_420)">
<path d="M431.328 392.264C426.734 400.556 421.595 408.534 415.946 416.146C410.357 423.795 404.261 431.061 397.7 437.894C391.161 444.738 384.152 451.117 376.724 456.985C374.904 458.477 372.964 459.85 371.084 461.283L368.25 463.403L365.266 465.403C361.402 468.075 357.404 470.732 353.241 473.045C336.563 482.006 318.738 488.645 300.263 492.778C281.964 497.025 263.319 499.608 244.555 500.495L244.376 499.002C262.771 495.554 281.062 492.24 299.07 487.778C303.545 486.673 308.021 485.419 312.497 484.15C316.973 482.882 321.359 481.508 325.73 480.001C334.475 477.106 342.939 473.424 351.018 469C355.034 466.765 358.901 464.272 362.595 461.537L365.415 459.522L368.145 457.402C369.965 455.91 371.83 454.611 373.576 453.089C380.707 447.235 387.418 440.885 393.657 434.087C406.225 420.591 416.823 405.385 425.137 388.92L431.328 392.264Z" fill="#727373"/>
<path d="M398.536 305.214C383.467 293.273 367.37 282.63 343.201 269.062C317.734 254.763 286.702 245.18 265.382 239.866" stroke="#727373" stroke-miterlimit="10"/>
<path d="M496.003 272.838C504.507 265.375 512.742 257.36 521.037 249.374C529.332 241.389 537.702 233.313 546.534 225.686C555.366 218.059 563.959 210.611 572.687 203.103L598.9 180.549L604.644 187.281C595.881 194.714 587.194 202.232 578.58 209.834C569.967 217.437 561.413 225.099 552.919 232.821C544.55 240.493 536.508 248.613 528.586 256.882L516.651 269.331C512.638 273.51 508.594 277.675 504.417 281.779L496.003 272.838Z" fill="#727373"/>
<path d="M523.066 358.068C532.018 365.919 560.812 388.98 611.686 398.011C676.211 409.444 732.084 385.92 742.244 381.875" stroke="#727373" stroke-miterlimit="10"/>
<path d="M497.316 387.413C500.227 401.11 504.609 414.451 510.385 427.206C516.187 439.998 523.404 452.099 531.898 463.283L535.121 467.463C536.21 468.851 537.374 470.164 538.492 471.523C540.715 474.254 543.162 476.792 545.519 479.404C550.398 484.479 555.485 489.36 560.856 493.942C571.655 503.079 583.364 511.081 595.797 517.824L595.111 519.138C582.312 512.744 570.203 505.052 558.976 496.181C553.382 491.703 548.056 486.912 542.909 481.911C540.432 479.329 537.851 476.822 535.449 474.105C534.255 472.762 533.017 471.463 531.868 470.075L528.437 465.925C519.39 454.729 511.619 442.558 505.267 429.639C498.877 416.665 493.905 403.037 490.438 388.995L497.316 387.413Z" fill="#727373"/>
<path d="M667.394 140.681C741.54 118.108 820.721 118.108 894.867 140.681" stroke="#727373" stroke-miterlimit="10"/>
<path d="M509.907 28.3003C524.55 50.5895 541.672 71.1451 560.946 89.5729C582.374 110.057 606.3 127.755 632.155 142.248" stroke="#727373" stroke-miterlimit="10"/>
<path d="M243.063 215.088C246.733 200.162 257.982 163.01 292.64 133.382C308.038 120.276 325.883 110.357 345.14 104.201" stroke="#727373" stroke-miterlimit="10"/>
<path d="M210.987 223.835C190.025 218.835 139.091 203.625 97.2581 156.667C77.6667 134.623 62.7771 108.811 53.5001 80.8112" stroke="#727373" stroke-miterlimit="10"/>
<path d="M186.206 483.553C166.229 469 103.852 427.356 41.8483 447.088C35.8153 449.005 29.96 451.443 24.3481 454.372" stroke="#727373" stroke-miterlimit="10"/>
<path d="M191.965 502.48C166.796 520.615 130.289 553.229 108.85 604.591C104.709 614.544 101.299 624.786 98.6455 635.235" stroke="#727373" stroke-miterlimit="10"/>
<path d="M668.856 547.737C717.287 540.682 766.55 541.665 814.661 550.647C828.922 553.338 843.039 556.746 856.957 560.857" stroke="#727373" stroke-miterlimit="10"/>
<path d="M638.227 562.29C664.752 595.587 696.224 624.618 731.546 648.37C745.131 657.452 759.245 665.716 773.812 673.118" stroke="#727373" stroke-miterlimit="10"/>
<path d="M199.947 544.468C226.297 544.468 247.658 523.096 247.658 496.733C247.658 470.37 226.297 448.999 199.947 448.999C173.596 448.999 152.235 470.37 152.235 496.733C152.235 523.096 173.596 544.468 199.947 544.468Z" fill="#A72340"/>
<path d="M22.2594 478.001C34.5529 478.001 44.5188 468.03 44.5188 455.731C44.5188 443.431 34.5529 433.461 22.2594 433.461C9.96587 433.461 0 443.431 0 455.731C0 468.03 9.96587 478.001 22.2594 478.001Z" fill="#A72340"/>
<path d="M98.7201 658.55C111.59 658.55 122.024 648.111 122.024 635.235C122.024 622.358 111.59 611.92 98.7201 611.92C85.8498 611.92 75.4164 622.358 75.4164 635.235C75.4164 648.111 85.8498 658.55 98.7201 658.55Z" fill="#A72340"/>
<path d="M226.562 268.301C249.048 268.301 267.277 250.064 267.277 227.567C267.277 205.07 249.048 186.833 226.562 186.833C204.077 186.833 185.848 205.07 185.848 227.567C185.848 250.064 204.077 268.301 226.562 268.301Z" fill="#0D3130"/>
<path d="M849.796 591.769C864.067 591.769 875.636 580.195 875.636 565.917C875.636 551.639 864.067 540.064 849.796 540.064C835.525 540.064 823.956 551.639 823.956 565.917C823.956 580.195 835.525 591.769 849.796 591.769Z" fill="#0D3130"/>
<path d="M904.31 174.265C920.155 174.265 933 161.414 933 145.562C933 129.709 920.155 116.858 904.31 116.858C888.466 116.858 875.621 129.709 875.621 145.562C875.621 161.414 888.466 174.265 904.31 174.265Z" fill="#0D3130"/>
<path d="M635.765 202.968C662.116 202.968 683.477 181.597 683.477 155.234C683.477 128.871 662.116 107.499 635.765 107.499C609.415 107.499 588.054 128.871 588.054 155.234C588.054 181.597 609.415 202.968 635.765 202.968Z" fill="#2D4266"/>
<path d="M758.356 391.13C770.889 391.13 781.048 380.965 781.048 368.427C781.048 355.888 770.889 345.724 758.356 345.724C745.824 345.724 735.664 355.888 735.664 368.427C735.664 380.965 745.824 391.13 758.356 391.13Z" fill="#753C72"/>
<path d="M777.945 698.015C790.477 698.015 800.637 687.85 800.637 675.312C800.637 662.773 790.477 652.609 777.945 652.609C765.413 652.609 755.253 662.773 755.253 675.312C755.253 687.85 765.413 698.015 777.945 698.015Z" fill="#753C72"/>
<path d="M51.6502 98.5138C64.1826 98.5138 74.3422 88.3493 74.3422 75.8108C74.3422 63.2723 64.1826 53.1079 51.6502 53.1079C39.1177 53.1079 28.9581 63.2723 28.9581 75.8108C28.9581 88.3493 39.1177 98.5138 51.6502 98.5138Z" fill="#753C72"/>
<path d="M502.492 45.4059C515.025 45.4059 525.185 35.2414 525.185 22.7029C525.185 10.1645 515.025 0 502.492 0C489.96 0 479.8 10.1645 479.8 22.7029C479.8 35.2414 489.96 45.4059 502.492 45.4059Z" fill="#753C72"/>
<path d="M635.765 590.023C662.116 590.023 683.477 568.652 683.477 542.289C683.477 515.926 662.116 494.554 635.765 494.554C609.415 494.554 588.054 515.926 588.054 542.289C588.054 568.652 609.415 590.023 635.765 590.023Z" fill="#2D4266"/>
<path d="M345.14 128.083C358.315 128.083 368.996 117.397 368.996 104.216C368.996 91.0342 358.315 80.3484 345.14 80.3484C331.965 80.3484 321.284 91.0342 321.284 104.216C321.284 117.397 331.965 128.083 345.14 128.083Z" fill="#2D4266"/>
<path d="M461.017 398.802C498.367 398.802 528.646 368.509 528.646 331.141C528.646 293.772 498.367 263.48 461.017 263.48C423.667 263.48 393.389 293.772 393.389 331.141C393.389 368.509 423.667 398.802 461.017 398.802Z" fill="#0D3130" stroke="#A82241" stroke-width="3" stroke-miterlimit="10"/>
</g>
<defs>
<clipPath id="clip0_2_420">
<rect width="933" height="698" fill="white"/>
</clipPath>
</defs>
</svg>
