<svg width="1235" height="51" viewBox="0 0 1235 51" fill="none" xmlns="http://www.w3.org/2000/svg">
<path d="M4.456 5.296V44.68H0.568V49H13.384C28 49 28.576 35.608 28.576 25.024C28.576 5.224 22.888 0.975996 13.24 0.975996H0.568V5.296H4.456ZM9.28 5.296H14.392C18.64 5.296 23.536 6.736 23.536 25.024C23.536 43.168 19.072 44.68 13.24 44.68H9.28V5.296ZM63.3239 34.168L67.0679 49.936L71.8199 48.64L59.6519 0.975996H53.8919L41.7239 48.64L46.4759 49.936L50.2199 34.168H63.3239ZM62.1719 29.848H51.3719L56.6999 7.384H56.8439L62.1719 29.848ZM97.6398 49H102.464V5.296H112.616V0.975996H87.2718V5.296H97.6398V49ZM149.668 34.168L153.412 49.936L158.164 48.64L145.996 0.975996H140.236L128.068 48.64L132.82 49.936L136.564 34.168H149.668ZM148.516 29.848H137.716L143.044 7.384H143.188L148.516 29.848ZM229.387 35.968L219.523 0.0399995L214.627 1.048L228.883 49.936H230.035L244.291 1.048L239.395 0.0399995L229.531 35.968H229.387ZM270.183 44.68H263.703V49H281.559V44.68H275.007V5.296H281.559V0.975996H263.703V5.296H270.183V44.68ZM327.395 11.2C326.171 5.152 322.859 0.327996 316.091 0.327996C309.251 0.327996 304.931 6.088 304.931 12.568C304.931 19.624 308.603 21.928 314.147 25.168C319.115 28.048 323.219 30.208 323.219 36.544C323.219 42.304 320.267 45.112 316.091 45.112C310.259 45.112 309.107 41.08 308.459 35.752L303.635 36.4C304.355 44.032 307.451 49.648 315.947 49.648C324.011 49.648 328.043 43.672 328.043 36.112C328.043 28.696 324.011 25.744 318.107 22.216C310.547 17.68 309.755 16.456 309.755 12.568C309.755 8.536 311.555 4.864 316.091 4.864C320.195 4.864 321.923 8.392 322.715 11.92L327.395 11.2ZM347.239 0.975996V37.552C347.239 44.68 351.703 49.648 358.975 49.648C366.103 49.648 370.783 44.824 370.783 37.336V0.975996H365.959V35.896C365.959 40.576 364.951 45.112 358.975 45.112C352.999 45.112 352.063 40.648 352.063 35.896V0.975996H347.239ZM408.699 34.168L412.443 49.936L417.195 48.64L405.027 0.975996H399.267L387.099 48.64L391.851 49.936L395.595 34.168H408.699ZM407.547 29.848H396.747L402.075 7.384H402.219L407.547 29.848ZM435.887 49H460.439V44.68H440.711V0.975996H435.887V49ZM486.043 44.68H479.563V49H497.419V44.68H490.867V5.296H497.419V0.975996H479.563V5.296H486.043V44.68ZM517.551 49H545.775V44.68H524.895L545.199 0.975996H519.639V5.296H537.927L517.551 49ZM581.386 34.168L585.13 49.936L589.882 48.64L577.714 0.975996H571.954L559.786 48.64L564.538 49.936L568.282 34.168H581.386ZM580.234 29.848H569.434L574.762 7.384H574.906L580.234 29.848ZM615.702 49H620.526V5.296H630.678V0.975996H605.334V5.296H615.702V49ZM658.73 44.68H652.25V49H670.106V44.68H663.554V5.296H670.106V0.975996H652.25V5.296H658.73V44.68ZM704.35 0.327996C691.534 0.327996 691.03 17.032 691.03 24.952C691.03 31.144 690.67 49.648 704.35 49.648C717.886 49.648 717.67 31 717.67 24.952C717.67 18.616 717.886 0.327996 704.35 0.327996ZM704.35 4.864C712.846 4.864 712.63 15.88 712.63 24.952C712.63 33.304 712.702 45.112 704.35 45.112C697.582 45.112 696.07 37.912 696.07 24.952C696.07 17.896 695.854 4.864 704.35 4.864ZM734.994 49H739.818V19.552L739.602 8.68L739.746 8.536L754.002 49H760.05V0.975996H755.226V30.496L755.442 41.224L755.298 41.368L741.042 0.975996H734.994V49ZM838.042 42.736C836.53 44.176 834.37 45.112 832.282 45.112C828.466 45.112 825.658 42.448 825.658 38.632C825.658 35.32 827.602 33.736 830.122 32.008L838.042 42.736ZM831.274 26.032C828.466 22.504 827.386 20.488 827.386 18.04C827.386 15.232 829.042 13.072 831.994 13.072C835.378 13.072 837.178 15.376 837.178 18.544C837.178 21.64 835.09 23.296 832.786 24.952L831.274 26.032ZM827.458 28.552C823.858 31.072 820.618 33.88 820.618 38.704C820.618 45.112 825.73 49.648 831.994 49.648C835.306 49.648 838.114 48.424 840.634 46.48L843.226 50.008L846.898 47.344L843.946 43.24C846.106 40.288 847.33 36.616 847.762 33.016L843.01 32.08C842.794 34.528 842.29 37.048 840.922 39.136L833.866 29.56C839.554 25.744 841.714 22.936 841.714 18.328C841.714 12.928 837.826 8.536 832.21 8.536C826.45 8.536 822.85 12.568 822.85 18.328C822.85 22.072 824.29 24.304 826.378 27.112L827.458 28.552ZM926.761 34.168L930.505 49.936L935.257 48.64L923.089 0.975996H917.329L905.161 48.64L909.913 49.936L913.657 34.168H926.761ZM925.609 29.848H914.809L920.137 7.384H920.281L925.609 29.848ZM950.853 49H955.677V19.552L955.461 8.68L955.605 8.536L969.861 49H975.909V0.975996H971.085V30.496L971.301 41.224L971.157 41.368L956.901 0.975996H950.853V49ZM1013.11 34.168L1016.85 49.936L1021.6 48.64L1009.43 0.975996H1003.67L991.505 48.64L996.257 49.936L1000 34.168H1013.11ZM1011.95 29.848H1001.15L1006.48 7.384H1006.63L1011.95 29.848ZM1040.29 49H1064.85V44.68H1045.12V0.975996H1040.29V49ZM1092.9 24.448L1082.53 0.0399995L1078.06 1.84L1090.45 30.064V49H1095.27V30.064L1107.73 1.84L1103.26 0.0399995L1092.9 24.448ZM1147.66 11.2C1146.44 5.152 1143.12 0.327996 1136.36 0.327996C1129.52 0.327996 1125.2 6.088 1125.2 12.568C1125.2 19.624 1128.87 21.928 1134.41 25.168C1139.38 28.048 1143.48 30.208 1143.48 36.544C1143.48 42.304 1140.53 45.112 1136.36 45.112C1130.52 45.112 1129.37 41.08 1128.72 35.752L1123.9 36.4C1124.62 44.032 1127.72 49.648 1136.21 49.648C1144.28 49.648 1148.31 43.672 1148.31 36.112C1148.31 28.696 1144.28 25.744 1138.37 22.216C1130.81 17.68 1130.02 16.456 1130.02 12.568C1130.02 8.536 1131.82 4.864 1136.36 4.864C1140.46 4.864 1142.19 8.392 1142.98 11.92L1147.66 11.2ZM1176.79 44.68H1170.31V49H1188.17V44.68H1181.62V5.296H1188.17V0.975996H1170.31V5.296H1176.79V44.68ZM1234 11.2C1232.78 5.152 1229.47 0.327996 1222.7 0.327996C1215.86 0.327996 1211.54 6.088 1211.54 12.568C1211.54 19.624 1215.21 21.928 1220.76 25.168C1225.72 28.048 1229.83 30.208 1229.83 36.544C1229.83 42.304 1226.88 45.112 1222.7 45.112C1216.87 45.112 1215.72 41.08 1215.07 35.752L1210.24 36.4C1210.96 44.032 1214.06 49.648 1222.56 49.648C1230.62 49.648 1234.65 43.672 1234.65 36.112C1234.65 28.696 1230.62 25.744 1224.72 22.216C1217.16 17.68 1216.36 16.456 1216.36 12.568C1216.36 8.536 1218.16 4.864 1222.7 4.864C1226.8 4.864 1228.53 8.392 1229.32 11.92L1234 11.2Z" fill="#ACFFEB"/>
</svg>
