<svg xmlns="http://www.w3.org/2000/svg" viewBox="0 0 625.37 467.63"><defs><style>.cls-1{fill:#727373;}.cls-2{fill:none;stroke:#727373;}.cls-2,.cls-7{stroke-miterlimit:10;}.cls-3{fill:#a72340;}.cls-4,.cls-7{fill:#0d3130;}.cls-5{fill:#2d4266;}.cls-6{fill:#753c72;}.cls-7{stroke:#a82241;stroke-width:3px;}</style></defs><g id="Layer_3" data-name="Layer 3"><path class="cls-1" d="M374.44,328.84a143.8,143.8,0,0,1-10.31,16,142,142,0,0,1-12.23,14.57,136.2,136.2,0,0,1-14.06,12.79c-1.22,1-2.52,1.92-3.78,2.88l-1.9,1.42-2,1.34c-2.59,1.79-5.27,3.57-8.06,5.12a139.29,139.29,0,0,1-35.51,13.22,208.82,208.82,0,0,1-37.34,5.17l-.12-1c12.33-2.31,24.59-4.53,36.66-7.52,3-.74,6-1.58,9-2.43s5.94-1.77,8.87-2.78a102.1,102.1,0,0,0,16.95-7.37,71.51,71.51,0,0,0,7.76-5l1.89-1.35,1.83-1.42c1.22-1,2.47-1.87,3.64-2.89a131.67,131.67,0,0,0,13.46-12.73,131.16,131.16,0,0,0,21.1-30.26Z" transform="translate(-85.33 -66.04)"/><path class="cls-2" d="M352.46,270.52c-10.1-8-20.89-15.13-37.09-24.22-17.07-9.58-37.87-16-52.16-19.56" transform="translate(-85.33 -66.04)"/><path class="cls-1" d="M417.79,248.83c5.7-5,11.22-10.37,16.78-15.72s11.17-10.76,17.09-15.87,11.68-10.1,17.53-15.13L486.76,187l3.85,4.51q-8.81,7.47-17.47,15.11t-17.2,15.4c-5.61,5.14-11,10.58-16.31,16.12l-8,8.34c-2.69,2.8-5.4,5.59-8.2,8.34Z" transform="translate(-85.33 -66.04)"/><path class="cls-2" d="M435.93,305.93c6,5.26,25.3,20.71,59.4,26.76,43.25,7.66,80.7-8.1,87.51-10.81" transform="translate(-85.33 -66.04)"/><path class="cls-1" d="M418.67,325.59a130.27,130.27,0,0,0,8.76,26.66,126.07,126.07,0,0,0,14.42,24.17l2.16,2.8c.73.93,1.51,1.81,2.26,2.72,1.49,1.83,3.13,3.53,4.71,5.28,3.27,3.4,6.68,6.67,10.28,9.74a138.43,138.43,0,0,0,23.42,16l-.46.88A139.92,139.92,0,0,1,460,398.46c-3.75-3-7.32-6.21-10.77-9.56-1.66-1.73-3.39-3.41-5-5.23-.8-.9-1.63-1.77-2.4-2.7l-2.3-2.78A129.81,129.81,0,0,1,424,353.88a134.69,134.69,0,0,1-9.94-27.23Z" transform="translate(-85.33 -66.04)"/><path class="cls-2" d="M532.67,160.29a261.88,261.88,0,0,1,152.47,0" transform="translate(-85.33 -66.04)"/><path class="cls-2" d="M427.11,85a236.31,236.31,0,0,0,34.21,41.05,236.26,236.26,0,0,0,47.73,35.29" transform="translate(-85.33 -66.04)"/><path class="cls-2" d="M248.25,210.14c2.46-10,10-34.89,33.23-54.74a102.42,102.42,0,0,1,35.19-19.55" transform="translate(-85.33 -66.04)"/><path class="cls-2" d="M226.75,216c-14.05-3.35-48.19-13.54-76.23-45a145.27,145.27,0,0,1-29.33-50.82" transform="translate(-85.33 -66.04)"/><path class="cls-2" d="M210.14,390c-13.39-9.75-55.2-37.65-96.76-24.43a73.36,73.36,0,0,0-11.73,4.88" transform="translate(-85.33 -66.04)"/><path class="cls-2" d="M214,402.68c-16.87,12.15-41.34,34-55.71,68.41a148.69,148.69,0,0,0-6.84,20.53" transform="translate(-85.33 -66.04)"/><path class="cls-2" d="M533.65,433a298.4,298.4,0,0,1,97.73,1.95,289.74,289.74,0,0,1,28.35,6.84" transform="translate(-85.33 -66.04)"/><path class="cls-2" d="M513.12,442.75a279,279,0,0,0,62.55,57.67A275.67,275.67,0,0,0,604,517" transform="translate(-85.33 -66.04)"/></g><g id="Layer_2" data-name="Layer 2"><circle class="cls-3" cx="134.02" cy="332.79" r="31.98"/><circle class="cls-3" cx="14.92" cy="305.32" r="14.92"/><circle class="cls-3" cx="66.17" cy="425.58" r="15.62"/><circle class="cls-4" cx="151.86" cy="152.46" r="27.29"/><circle class="cls-4" cx="569.6" cy="379.14" r="17.32"/><circle class="cls-4" cx="606.14" cy="97.52" r="19.23"/><circle class="cls-5" cx="426.14" cy="104" r="31.98"/><circle class="cls-6" cx="508.31" cy="246.83" r="15.21"/><circle class="cls-6" cx="521.44" cy="452.43" r="15.21"/><circle class="cls-6" cx="34.62" cy="50.79" r="15.21"/><circle class="cls-6" cx="336.81" cy="15.21" r="15.21"/><circle class="cls-5" cx="426.14" cy="363.31" r="31.98"/><circle class="cls-5" cx="231.34" cy="69.82" r="15.99"/><circle class="cls-7" cx="309.01" cy="221.85" r="45.33"/></g></svg>